<?xml version="1.0" encoding="UTF-8"?>
<svg id="Layer_1" xmlns="http://www.w3.org/2000/svg" version="1.1" viewBox="0 0 512 512">
  <!-- Generator: Adobe Illustrator 30.0.0, SVG Export Plug-In . SVG Version: 2.1.1 Build 123)  -->
  <defs>
    <style>
      .st0 {
        fill: #6a8a73;
      }

      .st1 {
        fill: #14517b;
      }
    </style>
  </defs>
  <path class="st0" d="M341,102c27.1,0,49-21.9,49-49s-21.9-49-49-49-49,21.9-49,49,21.9,49,49,49ZM265.2,231.4l19.8-19.8v60.6c0,24.5,10.7,47.9,29.3,63.8l62.5,53.5c5.2,4.5,8.6,10.6,9.5,17.3l11,77.1c2.2,15.3,16.4,26,31.7,23.8,15.3-2.2,26-16.4,23.8-31.7l-11-77.1c-2.9-20.2-13-38.6-28.5-51.9l-30.2-25.9v-100.8l3.3,4.1c15.9,19.9,40.1,31.5,65.6,31.5h29c15.5,0,28-12.5,28-28s-12.5-28-28-28h-29c-8.5,0-16.5-3.8-21.9-10.5l-15.7-19.6c-20.1-25.2-50.7-39.9-82.9-39.9s-55.2,11.2-75.1,31.1l-30.9,30.5c-15.7,15.7-24.6,37.1-24.6,59.4v32.8c0,15.5,12.5,28,28,28s28-12.5,28-28v-32.8c0-7.4,3-14.5,8.2-19.8ZM276.1,388.3c-1.3,4.5-3.8,8.7-7.1,12.1l-59.7,59.7c-10.9,10.9-10.9,28.7,0,39.6s28.7,10.9,39.6,0l59.7-59.7c10.1-10.1,17.4-22.6,21.3-36.3l1.9-6.6-40.2-34.5c-2.2-1.9-4.4-3.8-6.5-5.9l-9.1,31.7h0Z"/>
  <path class="st1" d="M105.6,206.8c19.7,0,35.7-16,35.7-35.7s-16-35.7-35.7-35.7-35.7,16-35.7,35.7,16,35.7,35.7,35.7ZM50.4,301.1l14.4-14.4v44.2c0,17.9,7.8,34.9,21.4,46.5l45.5,39c3.8,3.3,6.2,7.7,6.9,12.6l8,56.2c1.6,11.2,11.9,18.9,23.1,17.3s18.9-11.9,17.3-23.1l-8-56.2c-2.1-14.7-9.5-28.1-20.8-37.8l-22-18.9v-73.4l2.4,3c11.6,14.5,29.2,23,47.8,23h21.2c11.3,0,20.4-9.1,20.4-20.4s-9.1-20.4-20.4-20.4h-21.2c-6.2,0-12-2.8-15.9-7.7l-11.4-14.3c-14.7-18.4-36.9-29.1-60.4-29.1s-40.2,8.2-54.7,22.7l-22.5,22.3c-11.5,11.5-17.9,27-17.9,43.3v23.9c0,11.3,9.1,20.4,20.4,20.4s20.4-9.1,20.4-20.4v-23.9c0-5.4,2.2-10.6,6-14.4ZM58.3,415.5c-1,3.3-2.7,6.4-5.2,8.8l-43.5,43.5c-8,8-8,20.9,0,28.9s20.9,8,28.9,0l43.5-43.5c7.3-7.3,12.7-16.4,15.6-26.5l1.4-4.8-29.3-25.1c-1.6-1.4-3.2-2.8-4.7-4.3l-6.6,23.1h0Z"/>
</svg>